<svg width="14" height="14" viewBox="0 0 14 14" fill="none" xmlns="http://www.w3.org/2000/svg">
<path d="M10.0714 6.52451H7.80946V4.2626C7.80946 4.19713 7.75589 4.14356 7.69041 4.14356H6.97613C6.91065 4.14356 6.85708 4.19713 6.85708 4.2626V6.52451H4.59517C4.5297 6.52451 4.47613 6.57808 4.47613 6.64356V7.35784C4.47613 7.42332 4.5297 7.47689 4.59517 7.47689H6.85708V9.7388C6.85708 9.80427 6.91065 9.85784 6.97613 9.85784H7.69041C7.75589 9.85784 7.80946 9.80427 7.80946 9.7388V7.47689H10.0714C10.1368 7.47689 10.1904 7.42332 10.1904 7.35784V6.64356C10.1904 6.57808 10.1368 6.52451 10.0714 6.52451Z" fill="#0C2B66"/>
<path d="M7.33338 0.333334C3.65184 0.333334 0.666718 3.31845 0.666718 7C0.666718 10.6815 3.65184 13.6667 7.33338 13.6667C11.0149 13.6667 14.0001 10.6815 14.0001 7C14.0001 3.31845 11.0149 0.333334 7.33338 0.333334ZM7.33338 12.5357C4.27684 12.5357 1.79767 10.0565 1.79767 7C1.79767 3.94345 4.27684 1.46429 7.33338 1.46429C10.3899 1.46429 12.8691 3.94345 12.8691 7C12.8691 10.0565 10.3899 12.5357 7.33338 12.5357Z" fill="#0C2B66"/>
</svg>
