<svg width="16" height="16" viewBox="0 0 16 16" fill="none" xmlns="http://www.w3.org/2000/svg">
<path d="M10.7379 7.52451H8.47599V5.26261C8.47599 5.19713 8.42242 5.14356 8.35695 5.14356H7.64266C7.57718 5.14356 7.52361 5.19713 7.52361 5.26261V7.52451H5.26171C5.19623 7.52451 5.14266 7.57808 5.14266 7.64356V8.35784C5.14266 8.42332 5.19623 8.47689 5.26171 8.47689H7.52361V10.7388C7.52361 10.8043 7.57718 10.8578 7.64266 10.8578H8.35695C8.42242 10.8578 8.47599 10.8043 8.47599 10.7388V8.47689H10.7379C10.8034 8.47689 10.8569 8.42332 10.8569 8.35784V7.64356C10.8569 7.57808 10.8034 7.52451 10.7379 7.52451Z" fill="#2D2E2E"/>
<path d="M7.99992 1.33334C4.31837 1.33334 1.33325 4.31845 1.33325 8C1.33325 11.6816 4.31837 14.6667 7.99992 14.6667C11.6815 14.6667 14.6666 11.6816 14.6666 8C14.6666 4.31845 11.6815 1.33334 7.99992 1.33334ZM7.99992 13.5357C4.94337 13.5357 2.4642 11.0566 2.4642 8C2.4642 4.94346 4.94337 2.46429 7.99992 2.46429C11.0565 2.46429 13.5356 4.94346 13.5356 8C13.5356 11.0566 11.0565 13.5357 7.99992 13.5357Z" fill="#2D2E2E"/>
</svg>
