<svg width="40" height="40" viewBox="0 0 40 40" fill="none" xmlns="http://www.w3.org/2000/svg">
<path d="M0 20C0 8.95431 8.95431 0 20 0V0C31.0457 0 40 8.95431 40 20V20C40 31.0457 31.0457 40 20 40V40C8.95431 40 0 31.0457 0 20V20Z" fill="#FFA30F"/>
<path d="M29.9399 28.5624L23.4474 22.0699C24.4549 20.7675 24.9999 19.175 24.9999 17.5C24.9999 15.495 24.2174 13.615 22.8024 12.1975C21.3875 10.78 19.5025 10 17.5 10C15.4975 10 13.6125 10.7825 12.1975 12.1975C10.78 13.6125 10 15.495 10 17.5C10 19.5025 10.7825 21.3874 12.1975 22.8024C13.6125 24.2199 15.495 24.9999 17.5 24.9999C19.175 24.9999 20.765 24.4549 22.0674 23.4499L28.5599 29.9399C28.579 29.959 28.6016 29.9741 28.6264 29.9844C28.6513 29.9947 28.678 30 28.7049 30C28.7319 30 28.7585 29.9947 28.7834 29.9844C28.8083 29.9741 28.8309 29.959 28.8499 29.9399L29.9399 28.8524C29.959 28.8334 29.9741 28.8108 29.9844 28.7859C29.9947 28.761 30 28.7343 30 28.7074C30 28.6805 29.9947 28.6538 29.9844 28.6289C29.9741 28.6041 29.959 28.5815 29.9399 28.5624ZM21.46 21.46C20.4 22.5174 18.995 23.0999 17.5 23.0999C16.005 23.0999 14.6 22.5174 13.54 21.46C12.4825 20.4 11.9 18.995 11.9 17.5C11.9 16.005 12.4825 14.5975 13.54 13.54C14.6 12.4825 16.005 11.9 17.5 11.9C18.995 11.9 20.4025 12.48 21.46 13.54C22.5174 14.6 23.0999 16.005 23.0999 17.5C23.0999 18.995 22.5174 20.4025 21.46 21.46Z" fill="#FDFDFD"/>
</svg>
