<svg width="16" height="16" viewBox="0 0 16 16" fill="none" xmlns="http://www.w3.org/2000/svg">
<path d="M14.6266 13.7083L10.2983 9.37997C10.9699 8.51165 11.3333 7.44998 11.3333 6.33332C11.3333 4.99666 10.8116 3.74333 9.86828 2.79834C8.92495 1.85334 7.66829 1.33334 6.33329 1.33334C4.9983 1.33334 3.74164 1.85501 2.79831 2.79834C1.85331 3.74167 1.33331 4.99666 1.33331 6.33332C1.33331 7.66832 1.85498 8.92498 2.79831 9.86831C3.74164 10.8133 4.99663 11.3333 6.33329 11.3333C7.44995 11.3333 8.50995 10.97 9.37828 10.3L13.7066 14.6266C13.7193 14.6393 13.7344 14.6494 13.7509 14.6563C13.7675 14.6631 13.7853 14.6667 13.8033 14.6667C13.8212 14.6667 13.839 14.6631 13.8556 14.6563C13.8722 14.6494 13.8872 14.6393 13.8999 14.6266L14.6266 13.9016C14.6393 13.8889 14.6494 13.8739 14.6562 13.8573C14.6631 13.8407 14.6666 13.8229 14.6666 13.805C14.6666 13.787 14.6631 13.7692 14.6562 13.7526C14.6494 13.7361 14.6393 13.721 14.6266 13.7083ZM8.97328 8.97331C8.26662 9.67831 7.32995 10.0666 6.33329 10.0666C5.33663 10.0666 4.39997 9.67831 3.6933 8.97331C2.98831 8.26665 2.59997 7.32998 2.59997 6.33332C2.59997 5.33666 2.98831 4.39833 3.6933 3.69333C4.39997 2.98834 5.33663 2.6 6.33329 2.6C7.32995 2.6 8.26828 2.98667 8.97328 3.69333C9.67828 4.4 10.0666 5.33666 10.0666 6.33332C10.0666 7.32998 9.67828 8.26831 8.97328 8.97331Z" fill="#2D2E2E"/>
</svg>
