<svg width="16" height="16" viewBox="0 0 16 16" fill="none" xmlns="http://www.w3.org/2000/svg">
<path d="M6 13.5H3C2.86739 13.5 2.74022 13.4474 2.64645 13.3536C2.55268 13.2598 2.5 13.1326 2.5 13V10.2063C2.49978 10.1414 2.51236 10.077 2.53702 10.017C2.56169 9.95691 2.59796 9.9023 2.64375 9.85628L10.1438 2.35628C10.1903 2.30904 10.2457 2.27152 10.3069 2.24591C10.3681 2.2203 10.4337 2.20712 10.5 2.20712C10.5663 2.20712 10.632 2.2203 10.6931 2.24591C10.7543 2.27152 10.8097 2.30904 10.8563 2.35628L13.6438 5.14378C13.691 5.1903 13.7285 5.24576 13.7541 5.30692C13.7797 5.36808 13.7929 5.43372 13.7929 5.50003C13.7929 5.56633 13.7797 5.63198 13.7541 5.69314C13.7285 5.7543 13.691 5.80975 13.6438 5.85628L6 13.5Z" stroke="#0C2B66" stroke-linecap="round" stroke-linejoin="round"/>
<path d="M13.5 13.5H6" stroke="#0C2B66" stroke-linecap="round" stroke-linejoin="round"/>
<path d="M8.5 4L12 7.5" stroke="#0C2B66" stroke-width="0.666667" stroke-linecap="round" stroke-linejoin="round"/>
</svg>
